HIERARCHY
ROOT hips_JNT
{
	OFFSET 0.000000 0.000000 0.000000
	CHANNELS 6 Xposition Yposition Zposition Zrotation Xrotation Yrotation
	JOINT spine_JNT
	{
		OFFSET -0.000424 -2.543419 9.319810
		CHANNELS 6 Xposition Yposition Zposition Zrotation Xrotation Yrotation
		JOINT spine1_JNT
		{
			OFFSET 0.000000 0.000046 10.873099
			CHANNELS 6 Xposition Yposition Zposition Zrotation Xrotation Yrotation
			JOINT spine2_JNT
			{
				OFFSET 0.000000 5.951161 12.426399
				CHANNELS 6 Xposition Yposition Zposition Zrotation Xrotation Yrotation
				JOINT neck_JNT
				{
					OFFSET 0.000000 1.460481 13.979698
					CHANNELS 6 Xposition Yposition Zposition Zrotation Xrotation Yrotation
					JOINT head_JNT
					{
						OFFSET 0.000000 -2.091499 5.870201
						CHANNELS 6 Xposition Yposition Zposition Zrotation Xrotation Yrotation
						End Site
						{
							OFFSET 0.000000 0.000000 0.099998
						}
					}
				}
				JOINT l_shoulder_JNT
				{
					OFFSET 4.399140 1.485011 12.861000
					CHANNELS 6 Xposition Yposition Zposition Zrotation Xrotation Yrotation
					JOINT l_arm_JNT
					{
						OFFSET 8.757349 0.049052 -2.311981
						CHANNELS 6 Xposition Yposition Zposition Zrotation Xrotation Yrotation
						JOINT l_forearm_JNT
						{
							OFFSET 26.900103 -0.000013 -0.000046
							CHANNELS 6 Xposition Yposition Zposition Zrotation Xrotation Yrotation
							JOINT l_hand_JNT
							{
								OFFSET 23.014801 0.000004 -0.000046
								CHANNELS 6 Xposition Yposition Zposition Zrotation Xrotation Yrotation
								JOINT l_handThumb1_JNT
								{
									OFFSET 3.629997 -2.130000 -0.779999
									CHANNELS 6 Xposition Yposition Zposition Zrotation Xrotation Yrotation
									JOINT l_handThumb2_JNT
									{
										OFFSET 3.551140 -2.240060 -2.118370
										CHANNELS 6 Xposition Yposition Zposition Zrotation Xrotation Yrotation
										JOINT l_handThumb3_JNT
										{
											OFFSET 2.159111 -0.963467 -1.116310
											CHANNELS 6 Xposition Yposition Zposition Zrotation Xrotation Yrotation
											End Site
											{
												OFFSET 0.000000 0.000000 0.099998
											}
										}
									}
								}
								JOINT l_handIndex1_JNT
								{
									OFFSET 10.514900 -2.197570 -0.041019
									CHANNELS 6 Xposition Yposition Zposition Zrotation Xrotation Yrotation
									JOINT l_handIndex2_JNT
									{
										OFFSET 2.751831 0.139054 -0.102867
										CHANNELS 6 Xposition Yposition Zposition Zrotation Xrotation Yrotation
										JOINT l_handIndex3_JNT
										{
											OFFSET 2.353012 0.090487 -0.073399
											CHANNELS 6 Xposition Yposition Zposition Zrotation Xrotation Yrotation
											End Site
											{
												OFFSET 0.000000 0.000000 0.099998
											}
										}
									}
								}
								JOINT l_handMiddle1_JNT
								{
									OFFSET 10.067101 -0.059573 0.139202
									CHANNELS 6 Xposition Yposition Zposition Zrotation Xrotation Yrotation
									JOINT l_handMiddle2_JNT
									{
										OFFSET 3.909027 0.119066 -0.288403
										CHANNELS 6 Xposition Yposition Zposition Zrotation Xrotation Yrotation
										JOINT l_handMiddle3_JNT
										{
											OFFSET 2.328400 0.059440 -0.019108
											CHANNELS 6 Xposition Yposition Zposition Zrotation Xrotation Yrotation
											End Site
											{
												OFFSET 0.000000 0.000000 0.099998
											}
										}
									}
								}
								JOINT l_handRing1_JNT
								{
									OFFSET 9.468109 1.809830 0.132240
									CHANNELS 6 Xposition Yposition Zposition Zrotation Xrotation Yrotation
									JOINT l_handRing2_JNT
									{
										OFFSET 3.281532 0.033937 -0.224052
										CHANNELS 6 Xposition Yposition Zposition Zrotation Xrotation Yrotation
										JOINT l_handRing3_JNT
										{
											OFFSET 2.245003 0.008389 -0.070213
											CHANNELS 6 Xposition Yposition Zposition Zrotation Xrotation Yrotation
											End Site
											{
												OFFSET 0.000000 0.000000 0.099998
											}
										}
									}
								}
								JOINT l_handPinky1_JNT
								{
									OFFSET 8.490768 3.584150 -0.077770
									CHANNELS 6 Xposition Yposition Zposition Zrotation Xrotation Yrotation
									JOINT l_handPinky2_JNT
									{
										OFFSET 2.532173 0.017040 -0.073074
										CHANNELS 6 Xposition Yposition Zposition Zrotation Xrotation Yrotation
										JOINT l_handPinky3_JNT
										{
											OFFSET 1.951210 -0.017009 0.025116
											CHANNELS 6 Xposition Yposition Zposition Zrotation Xrotation Yrotation
											End Site
											{
												OFFSET 0.000000 0.000000 0.099998
											}
										}
									}
								}
							}
						}
					}
				}
				JOINT r_shoulder_JNT
				{
					OFFSET -4.397820 1.485011 12.860600
					CHANNELS 6 Xposition Yposition Zposition Zrotation Xrotation Yrotation
					JOINT r_arm_JNT
					{
						OFFSET -8.757320 0.049050 -2.312000
						CHANNELS 6 Xposition Yposition Zposition Zrotation Xrotation Yrotation
						JOINT r_forearm_JNT
						{
							OFFSET -26.900000 -0.000010 0.000000
							CHANNELS 6 Xposition Yposition Zposition Zrotation Xrotation Yrotation
							JOINT r_hand_JNT
							{
								OFFSET -23.014900 0.000000 0.000000
								CHANNELS 6 Xposition Yposition Zposition Zrotation Xrotation Yrotation
								JOINT r_handThumb1_JNT
								{
									OFFSET -3.629997 -2.130000 -0.779999
									CHANNELS 6 Xposition Yposition Zposition Zrotation Xrotation Yrotation
									JOINT r_handThumb2_JNT
									{
										OFFSET -3.551201 -2.240060 -2.118000
										CHANNELS 6 Xposition Yposition Zposition Zrotation Xrotation Yrotation
										JOINT r_handThumb3_JNT
										{
											OFFSET -2.159103 -0.963467 -1.116001
											CHANNELS 6 Xposition Yposition Zposition Zrotation Xrotation Yrotation
											End Site
											{
												OFFSET 0.000000 0.000000 0.099998
											}
										}
									}
								}
								JOINT r_handIndex1_JNT
								{
									OFFSET -10.514900 -2.197560 -0.040997
									CHANNELS 6 Xposition Yposition Zposition Zrotation Xrotation Yrotation
									JOINT r_handIndex2_JNT
									{
										OFFSET -2.751801 0.139050 -0.102997
										CHANNELS 6 Xposition Yposition Zposition Zrotation Xrotation Yrotation
										JOINT r_handIndex3_JNT
										{
											OFFSET -2.352997 0.090490 -0.073006
											CHANNELS 6 Xposition Yposition Zposition Zrotation Xrotation Yrotation
											End Site
											{
												OFFSET 0.000000 0.000000 0.099998
											}
										}
									}
								}
								JOINT r_handMiddle1_JNT
								{
									OFFSET -10.067101 -0.059570 0.139999
									CHANNELS 6 Xposition Yposition Zposition Zrotation Xrotation Yrotation
									JOINT r_handMiddle2_JNT
									{
										OFFSET -3.909103 0.119070 -0.288998
										CHANNELS 6 Xposition Yposition Zposition Zrotation Xrotation Yrotation
										JOINT r_handMiddle3_JNT
										{
											OFFSET -2.328400 0.059440 -0.019001
											CHANNELS 6 Xposition Yposition Zposition Zrotation Xrotation Yrotation
											End Site
											{
												OFFSET 0.000000 0.000000 0.099998
											}
										}
									}
								}
								JOINT r_handRing1_JNT
								{
									OFFSET -9.468102 1.809830 0.133003
									CHANNELS 6 Xposition Yposition Zposition Zrotation Xrotation Yrotation
									JOINT r_handRing2_JNT
									{
										OFFSET -3.281601 0.033939 -0.224995
										CHANNELS 6 Xposition Yposition Zposition Zrotation Xrotation Yrotation
										JOINT r_handRing3_JNT
										{
											OFFSET -2.245003 0.008390 -0.070000
											CHANNELS 6 Xposition Yposition Zposition Zrotation Xrotation Yrotation
											End Site
											{
												OFFSET 0.000000 0.000000 0.099998
											}
										}
									}
								}
								JOINT r_handPinky1_JNT
								{
									OFFSET -8.490799 3.584149 -0.076996
									CHANNELS 6 Xposition Yposition Zposition Zrotation Xrotation Yrotation
									JOINT r_handPinky2_JNT
									{
										OFFSET -2.532204 0.017040 -0.074005
										CHANNELS 6 Xposition Yposition Zposition Zrotation Xrotation Yrotation
										JOINT r_handPinky3_JNT
										{
											OFFSET -1.951202 -0.017010 0.026001
											CHANNELS 6 Xposition Yposition Zposition Zrotation Xrotation Yrotation
											End Site
											{
												OFFSET 0.000000 0.000000 0.099998
											}
										}
									}
								}
							}
						}
					}
				}
			}
		}
	}
	JOINT l_upleg_JNT
	{
		OFFSET 10.061400 0.706233 -5.185750
		CHANNELS 6 Xposition Yposition Zposition Zrotation Xrotation Yrotation
		JOINT l_leg_JNT
		{
			OFFSET -0.348572 0.819165 -45.582401
			CHANNELS 6 Xposition Yposition Zposition Zrotation Xrotation Yrotation
			JOINT l_foot_JNT
			{
				OFFSET 0.349145 1.708487 -42.332497
				CHANNELS 6 Xposition Yposition Zposition Zrotation Xrotation Yrotation
				JOINT l_toebase_JNT
				{
					OFFSET 0.070271 -12.888700 -8.126663
					CHANNELS 6 Xposition Yposition Zposition Zrotation Xrotation Yrotation
					End Site
					{
						OFFSET 0.000000 0.000000 0.099998
					}
				}
			}
		}
	}
	JOINT r_upleg_JNT
	{
		OFFSET -10.061000 0.706233 -5.185770
		CHANNELS 6 Xposition Yposition Zposition Zrotation Xrotation Yrotation
		JOINT r_leg_JNT
		{
			OFFSET 0.348580 0.819162 -45.582405
			CHANNELS 6 Xposition Yposition Zposition Zrotation Xrotation Yrotation
			JOINT r_foot_JNT
			{
				OFFSET -0.349180 1.708487 -42.332504
				CHANNELS 6 Xposition Yposition Zposition Zrotation Xrotation Yrotation
				JOINT r_toebase_JNT
				{
					OFFSET -0.070200 -12.888700 -8.126663
					CHANNELS 6 Xposition Yposition Zposition Zrotation Xrotation Yrotation
					End Site
					{
						OFFSET 0.000000 0.000000 0.099998
					}
				}
			}
		}
	}
}
MOTION
Frames: 4
Frame Time: 0.041667
12.120900 13.357578 93.639435 19.012195 5.690882 0.827322 -0.000425 -2.543412 9.319809 0.053866 -0.020444 -7.026886 0.000001 0.000048 10.873092 -0.000002 0.000000 0.000001 0.000001 5.951163 12.426408 11.093063 -0.128597 -1.911189 -0.000001 1.460482 13.979713 -3.217361 -3.560252 -4.213879 -0.000002 -2.091491 5.870195 0.616987 10.951752 -3.244249 4.399137 1.485011 12.861012 -0.000001 0.000001 -0.000002 8.757346 0.049056 -2.311989 -46.518277 -34.054169 12.430632 26.900110 -0.000020 -0.000058 -86.730302 -1.121109 1.187057 23.014801 0.000002 -0.000035 0.000001 -0.000001 -0.000003 3.629997 -2.129991 -0.779989 -22.207698 20.704834 4.106610 3.551129 -2.240050 -2.118371 0.000004 -0.000002 0.000004 2.159112 -0.963465 -1.116306 0.770219 0.052005 7.704564 10.514900 -2.197565 -0.041015 -0.383186 3.607145 12.129988 2.751823 0.139052 -0.102869 -0.633947 4.614720 15.609187 2.353008 0.090489 -0.073405 -0.283862 3.097580 10.393619 10.067103 -0.059570 0.139217 -0.351115 2.805321 14.184897 3.909025 0.119062 -0.288414 -0.575254 3.583475 18.246980 2.328398 0.059444 -0.019121 -0.254247 2.412084 12.155704 9.468113 1.809836 0.132260 0.233477 -1.594707 16.184487 3.281534 0.033939 -0.224061 0.376112 -2.033948 20.811897 2.245012 0.008393 -0.070207 0.175621 -1.371247 13.871511 8.490764 3.584151 -0.077760 0.548811 -3.485617 17.739075 2.532193 0.017038 -0.073106 0.899053 -4.435055 22.825444 1.951214 -0.017008 0.025095 0.397787 -3.002430 15.199565 -4.397822 1.485013 12.860611 -0.000001 0.000001 0.000001 -8.757317 0.049055 -2.311995 108.892436 -39.905903 -12.784454 -26.900009 -0.000022 0.000013 35.892282 5.521726 16.937419 -23.014915 0.000005 -0.000015 -0.000000 0.000004 -0.000003 -3.629982 -2.129997 -0.780006 22.207710 20.704820 -4.106617 -3.551204 -2.240057 -2.117998 -0.000001 -0.000003 0.000002 -2.159106 -0.963455 -1.115992 0.754845 -0.049940 -7.563712 -10.514862 -2.197560 -0.041007 0.365878 3.542893 -11.907480 -2.751806 0.139039 -0.102994 0.612197 4.532094 -15.322671 -2.352987 0.090493 -0.073008 0.272018 3.041852 -10.203124 -10.067087 -0.059571 0.139988 0.337408 2.755332 -13.925047 -3.909112 0.119080 -0.289010 0.554565 3.520111 -17.912480 -2.328401 0.059440 -0.019004 0.254274 2.366666 -11.933586 -9.468089 1.809834 0.132986 -0.217446 -1.568549 -15.888267 -3.281610 0.033933 -0.224990 -0.358156 -2.000071 -20.430919 -2.245000 0.008392 -0.070009 -0.159010 -1.349223 -13.617559 -8.490771 3.584158 -0.077007 -0.525975 -3.424900 -17.413875 -2.532202 0.017030 -0.074001 -0.864433 -4.359221 -22.406348 -1.951187 -0.017036 0.026009 -0.386638 -2.947920 -14.921440 10.061399 0.706238 -5.185748 -21.375137 -24.895918 -24.730378 -0.348568 0.819158 -45.582386 0.455879 39.235035 0.170014 0.349140 1.708495 -42.332485 -0.256430 -0.000226 -0.664188 0.070272 -12.888706 -8.126668 -3.759664 -17.367868 -0.582491 -10.061001 0.706238 -5.185773 37.167093 -50.344655 42.543066 0.348575 0.819168 -45.582401 -31.476865 85.647861 33.826099 -0.349184 1.708489 -42.332504 0.000000 0.000019 -0.000005 -0.070196 -12.888702 -8.126656 -0.000001 0.000000 -0.000002 
12.269700 13.551086 93.655441 19.212450 5.624750 0.905307 -0.000426 -2.543421 9.319805 0.053941 -0.019670 -7.088837 0.000001 0.000044 10.873094 -0.000000 0.000002 -0.000000 0.000001 5.951152 12.426388 11.004483 -0.128175 -1.851164 0.000000 1.460481 13.979708 -3.056883 -3.784832 -4.000008 -0.000002 -2.091501 5.870194 0.861924 11.647662 -3.755256 4.399137 1.485011 12.861004 0.000001 -0.000001 -0.000002 8.757351 0.049052 -2.311996 -47.051954 -33.622795 11.806252 26.900106 -0.000014 -0.000032 -86.333892 -1.021585 1.089198 23.014801 0.000004 -0.000051 -0.000003 0.000005 -0.000005 3.629991 -2.130002 -0.780031 -22.207706 20.704831 4.106616 3.551131 -2.240052 -2.118370 0.000006 -0.000003 -0.000003 2.159101 -0.963460 -1.116300 0.768189 0.051730 7.687766 10.514906 -2.197577 -0.041049 -0.377897 3.600182 12.103264 2.751841 0.139052 -0.102851 -0.633349 4.604312 15.575160 2.353009 0.090486 -0.073415 -0.284197 3.090616 10.371001 10.067103 -0.059584 0.139185 -0.343783 2.800801 14.153614 3.909024 0.119067 -0.288405 -0.571684 3.576276 18.207010 2.328396 0.059446 -0.019092 -0.258013 2.405864 12.129307 9.468108 1.809821 0.132217 0.234989 -1.590599 16.149253 3.281529 0.033934 -0.224052 0.372998 -2.030281 20.766441 2.244999 0.008390 -0.070217 0.174191 -1.368487 13.841197 8.490771 3.584141 -0.077785 0.538702 -3.480729 17.699904 2.532169 0.017041 -0.073056 0.889194 -4.428419 22.774981 1.951201 -0.017007 0.025134 0.398143 -2.995471 15.166473 -4.397820 1.485012 12.860607 -0.000001 -0.000002 0.000001 -8.757311 0.049049 -2.311991 108.832904 -39.838461 -12.612347 -26.900003 -0.000001 -0.000003 35.639681 5.557355 17.172421 -23.014906 0.000010 -0.000016 0.000002 0.000002 -0.000012 -3.629996 -2.130003 -0.779977 22.207708 20.704817 -4.106608 -3.551215 -2.240057 -2.118003 -0.000003 -0.000003 -0.000003 -2.159082 -0.963473 -1.116008 0.755865 -0.050077 -7.555320 -10.514883 -2.197554 -0.040977 0.370473 3.537878 -11.894506 -2.751804 0.139061 -0.102988 0.609550 4.527536 -15.305569 -2.353000 0.090483 -0.073003 0.265197 3.039632 -10.191495 -10.067099 -0.059559 0.140016 0.335946 2.752521 -13.909603 -3.909108 0.119068 -0.288999 0.553524 3.516277 -17.892592 -2.328394 0.059444 -0.019003 0.237770 2.367447 -11.919626 -9.468114 1.809830 0.133027 -0.216496 -1.566980 -15.870546 -3.281602 0.033937 -0.224995 -0.358654 -1.997473 -20.408373 -2.244999 0.008386 -0.070007 -0.153710 -1.348948 -13.602346 -8.490783 3.584153 -0.076968 -0.522287 -3.422013 -17.394315 -2.532188 0.017056 -0.074019 -0.860776 -4.355355 -22.381219 -1.951197 -0.017023 0.025985 -0.386926 -2.944410 -14.904892 10.061399 0.706230 -5.185759 -21.712106 -24.990860 -24.759991 -0.348574 0.819166 -45.582409 0.423547 39.409372 0.190165 0.349138 1.708491 -42.332497 -0.276967 0.000076 -0.643263 0.070267 -12.888709 -8.126663 -3.737450 -17.310155 -0.574325 -10.061001 0.706229 -5.185780 37.960344 -50.375551 42.988466 0.348582 0.819170 -45.582394 -30.110619 85.916533 32.225051 -0.349180 1.708488 -42.332497 -0.000002 0.000002 0.000003 -0.070200 -12.888700 -8.126656 -0.000002 0.000001 0.000001 
12.386599 13.702782 93.686127 19.428275 5.550928 0.974524 -0.000422 -2.543423 9.319823 -0.001473 -0.011813 -7.140805 -0.000000 0.000047 10.873101 -0.000000 0.000002 -0.000000 0.000002 5.951159 12.426408 10.938630 -0.127657 -1.789087 -0.000000 1.460481 13.979711 -2.885182 -3.958425 -3.771025 0.000000 -2.091496 5.870196 1.017209 12.237186 -4.307437 4.399138 1.485012 12.861000 0.000003 -0.000005 -0.000000 8.757351 0.049056 -2.311987 -47.681339 -33.232934 11.170436 26.900106 -0.000009 -0.000036 -85.905290 -0.845774 0.908565 23.014799 0.000008 -0.000063 0.000002 0.000001 -0.000009 3.629989 -2.130004 -0.779996 -22.207699 20.704836 4.106615 3.551116 -2.240049 -2.118361 0.000003 -0.000002 0.000002 2.159113 -0.963456 -1.116312 0.764109 0.051181 7.658650 10.514900 -2.197575 -0.041032 -0.380230 3.585624 12.057588 2.751828 0.139051 -0.102908 -0.625216 4.588230 15.515589 2.353007 0.090489 -0.073398 -0.279992 3.079418 10.331491 10.067100 -0.059582 0.139194 -0.345166 2.789401 14.100107 3.909029 0.119069 -0.288411 -0.568490 3.562822 18.137880 2.328393 0.059439 -0.019114 -0.254200 2.397280 12.083229 9.468104 1.809823 0.132229 0.218211 -1.589077 16.087635 3.281530 0.033935 -0.224060 0.371581 -2.022417 20.687788 2.244996 0.008386 -0.070217 0.162400 -1.365989 13.788545 8.490767 3.584149 -0.077782 0.539025 -3.466571 17.632866 2.532175 0.017035 -0.073076 0.886108 -4.411029 22.688657 1.951221 -0.017012 0.025105 0.392238 -2.985164 15.108817 -4.397820 1.485011 12.860611 0.000005 -0.000005 0.000002 -8.757316 0.049056 -2.311996 108.782367 -39.717482 -12.430607 -26.899998 -0.000004 0.000000 35.574887 5.575404 17.260417 -23.014906 0.000014 -0.000005 0.000000 0.000002 -0.000005 -3.629996 -2.129989 -0.780002 22.207706 20.704820 -4.106612 -3.551193 -2.240068 -2.118000 0.000002 -0.000002 -0.000000 -2.159090 -0.963466 -1.115999 0.755857 -0.050072 -7.543111 -10.514896 -2.197556 -0.040988 0.361900 3.533790 -11.874859 -2.751778 0.139049 -0.102994 0.606940 4.520577 -15.280612 -2.353000 0.090481 -0.072996 0.266261 3.034424 -10.175098 -10.067117 -0.059567 0.140000 0.338372 2.747285 -13.887180 -3.909104 0.119069 -0.289012 0.552756 3.510459 -17.863653 -2.328394 0.059420 -0.018996 0.251620 2.360592 -11.901027 -9.468122 1.809845 0.133007 -0.215127 -1.564710 -15.844932 -3.281617 0.033956 -0.224988 -0.360524 -1.993254 -20.375481 -2.244993 0.008393 -0.069983 -0.162024 -1.344672 -13.580553 -8.490801 3.584153 -0.076979 -0.520427 -3.416709 -17.366118 -2.532212 0.017033 -0.073998 -0.860532 -4.347667 -22.345097 -1.951197 -0.017016 0.026012 -0.382518 -2.940611 -14.880525 10.061405 0.706230 -5.185741 -22.000560 -24.995938 -24.775721 -0.348581 0.819159 -45.582401 0.400364 39.442218 0.205618 0.349146 1.708496 -42.332489 -0.259455 0.000170 -0.613906 0.070274 -12.888708 -8.126669 -3.706991 -17.230433 -0.565840 -10.060997 0.706229 -5.185763 38.654247 -50.365023 43.420482 0.348580 0.819162 -45.582394 -28.348408 86.248091 30.183156 -0.349182 1.708488 -42.332497 0.000000 -0.000015 -0.000005 -0.070203 -12.888702 -8.126656 -0.000001 0.000004 0.000004 
12.468700 13.807587 93.731827 19.656630 5.469972 1.036197 -0.000424 -2.543425 9.319802 -0.001442 -0.011492 -7.181754 0.000002 0.000047 10.873096 -0.000004 0.000003 0.000000 0.000001 5.951161 12.426415 10.902502 -0.127409 -1.726532 -0.000002 1.460482 13.979695 -2.700190 -4.080412 -3.529237 -0.000001 -2.091500 5.870217 0.923920 12.714077 -4.845252 4.399137 1.485011 12.860973 -0.000000 -0.000000 -0.000004 8.757360 0.049055 -2.311953 -48.398789 -32.906151 10.533391 26.900112 -0.000020 -0.000060 -85.447695 -0.595245 0.644587 23.014807 0.000001 -0.000057 0.055954 0.000012 0.000001 3.629984 -2.129985 -0.780010 -22.207701 20.704832 4.106622 3.551148 -2.240052 -2.118382 0.000006 0.000002 -0.000003 2.159119 -0.963467 -1.116319 0.757958 0.050355 7.615669 10.514891 -2.197562 -0.041022 -0.375942 3.565821 11.989788 2.751835 0.139050 -0.102864 -0.616360 4.563630 15.428040 2.353011 0.090490 -0.073377 -0.271042 3.063376 10.273080 10.067101 -0.059567 0.139202 -0.337580 2.774996 14.020630 3.909025 0.119070 -0.288410 -0.564059 3.542875 18.035999 2.328398 0.059435 -0.019134 -0.251641 2.383971 12.015436 9.468102 1.809834 0.132244 0.219941 -1.579184 15.997461 3.281529 0.033938 -0.224046 0.369704 -2.010730 20.571666 2.244998 0.008391 -0.070208 0.149949 -1.361056 13.710894 8.490775 3.584158 -0.077783 0.532939 -3.447767 17.533767 2.532180 0.017039 -0.073066 0.875457 -4.387932 22.560786 1.951206 -0.017002 0.025136 0.391214 -2.967900 15.024003 -4.397823 1.485011 12.860592 -0.000004 -0.000001 0.000000 -8.757315 0.049052 -2.311995 108.739378 -39.542677 -12.242690 -26.899998 -0.000013 -0.000004 35.731981 5.574823 17.178805 -23.014891 -0.000014 -0.000004 -0.000000 0.000000 0.000003 -3.630003 -2.130009 -0.780017 22.207708 20.704813 -4.106616 -3.551194 -2.240062 -2.118011 -0.000003 0.000000 -0.000000 -2.159101 -0.963473 -1.115996 0.750686 -0.049392 -7.526407 -10.514895 -2.197569 -0.041010 0.360747 3.525978 -11.848485 -2.751798 0.139055 -0.102997 0.605431 4.510484 -15.246703 -2.353001 0.090489 -0.073001 0.269577 3.026961 -10.152736 -10.067116 -0.059594 0.139997 0.333175 2.742232 -13.856202 -3.909110 0.119056 -0.288990 0.552089 3.502362 -17.824058 -2.328391 0.059416 -0.019010 0.237056 2.358278 -11.874074 -9.468129 1.809815 0.132990 -0.220196 -1.559622 -15.809894 -3.281607 0.033944 -0.225001 -0.357478 -1.989566 -20.330217 -2.245001 0.008373 -0.070003 -0.146826 -1.345244 -13.550112 -8.490806 3.584133 -0.077001 -0.520241 -3.408716 -17.327640 -2.532204 0.017051 -0.074001 -0.854122 -4.339597 -22.295204 -1.951195 -0.017005 0.025996 -0.379187 -2.934674 -14.847450 10.061402 0.706228 -5.185750 -22.238251 -24.911879 -24.781016 -0.348578 0.819163 -45.582413 0.361106 39.339813 0.232305 0.349143 1.708499 -42.332497 -0.223820 0.000151 -0.577863 0.070270 -12.888702 -8.126657 -3.670581 -17.122253 -0.556451 -10.061000 0.706225 -5.185768 39.234321 -50.316983 43.824843 0.348583 0.819166 -45.582394 -26.067922 86.640656 27.584390 -0.349179 1.708492 -42.332504 -0.000000 0.000003 -0.000010 -0.070201 -12.888700 -8.126657 -0.000001 0.000002 -0.000004 
